<svg width="24" height="24" viewBox="0 0 24 24" fill="none" xmlns="http://www.w3.org/2000/svg">
<path d="M9 22H15C20 22 22 20 22 15V8.99997C22 3.99997 20 1.99997 15 1.99997H9C4 1.99997 2 3.99997 2 8.99997V15C2 20 4 22 9 22Z" stroke="#1A1A1A" stroke-width="1.5" stroke-linecap="round" stroke-linejoin="round"/>
<path d="M16.2799 13.61C15.1499 14.74 13.5299 15.09 12.0999 14.64L9.50995 17.22C9.32995 17.41 8.95995 17.53 8.68995 17.49L7.48995 17.33C7.08995 17.28 6.72995 16.9 6.66995 16.51L6.50995 15.31C6.46995 15.05 6.59995 14.68 6.77995 14.49L9.35995 11.91C8.91995 10.48 9.25995 8.85998 10.3899 7.72998C12.0099 6.10998 14.6499 6.10998 16.2799 7.72998C17.8999 9.33998 17.8999 11.98 16.2799 13.61Z" stroke="#1A1A1A" stroke-width="1.5" stroke-miterlimit="10" stroke-linecap="round" stroke-linejoin="round"/>
<path d="M10.45 16.28L9.59998 15.42" stroke="#1A1A1A" stroke-width="1.5" stroke-miterlimit="10" stroke-linecap="round" stroke-linejoin="round"/>
<path d="M13.3945 10.7H13.4035" stroke="#1A1A1A" stroke-width="2" stroke-linecap="round" stroke-linejoin="round"/>
</svg>
